<svg width="64" height="66" viewBox="0 0 64 66" fill="none" xmlns="http://www.w3.org/2000/svg">
<g filter="url(#filter0_d_79_9)">
<path d="M58.5833 1.00183C55.663 0.954215 52.7989 1.83547 50.3785 3.52643C47.9581 5.21739 46.0981 7.63647 45.05 10.4565C40.7959 9.24386 36.4118 8.5871 32 8.5016C27.5882 8.58731 23.2041 9.24407 18.95 10.4565C17.9019 7.63647 16.0419 5.21739 13.6215 3.52643C11.2011 1.83547 8.33705 0.954215 5.41672 1.00183H3.00006V30.8234C2.99472 32.7937 3.36725 34.7455 4.0961 36.5658C4.82494 38.3861 5.89562 40.0387 7.24613 41.4281L24.0419 58.8025C24.7135 59.5017 25.5127 60.056 26.393 60.4333C27.2733 60.8105 28.2172 61.0031 29.1701 61H34.8323C35.7848 61.0028 36.7283 60.81 37.6081 60.4328C38.488 60.0556 39.2868 59.5014 39.9581 58.8025L56.7515 41.4306C58.1028 40.0412 59.1742 38.3883 59.9034 36.5675C60.6327 34.7467 61.0054 32.7943 60.9999 30.8234V1.00183H58.5833ZM24.75 52.4652L10.6633 37.8932C9.76324 36.9668 9.0497 35.865 8.56395 34.6514C8.0782 33.4379 7.82989 32.1368 7.83338 30.8234V26.5385C9.49549 26.9826 11.1137 27.5869 12.6667 28.3435C13.0796 30.4508 14.17 32.3514 15.7602 33.7359C17.3505 35.1204 19.347 35.9072 21.4247 35.9682C23.7118 39.7112 24.8694 44.074 24.75 48.5003V52.4652ZM56.1666 30.8234C56.1705 32.1371 55.9221 33.4385 55.4359 34.6521C54.9497 35.8657 54.2353 36.9674 53.3343 37.8932L39.25 52.4652V48.5003C39.1306 44.074 40.2882 39.7112 42.5753 35.9682C44.653 35.9072 46.6495 35.1204 48.2398 33.7359C49.83 32.3514 50.9204 30.4508 51.3333 28.3435C52.8863 27.5869 54.5045 26.9826 56.1666 26.5385V30.8234ZM56.1666 21.4337C50.2917 22.8312 34.4167 28.471 34.4167 48.5003V51.0003H29.5833V48.5003C29.5833 28.4685 13.7083 22.8312 7.83338 21.4337V6.27417C9.64652 6.79957 11.2888 7.82189 12.5866 9.2331C13.8845 10.6443 14.7897 12.392 15.2066 14.2914L15.9727 16.6613L18.2613 15.8739C22.7131 14.4313 27.3366 13.6329 32 13.5014C36.6634 13.6332 41.2868 14.4316 45.7387 15.8739L48.0297 16.6613L48.791 14.2914C49.2088 12.392 50.1147 10.6445 51.4128 9.23341C52.711 7.8223 54.3534 6.79992 56.1666 6.27417V21.4337Z" fill="#ED7D31"/>
</g>
<defs>
<filter id="filter0_d_79_9" x="0" y="0" width="64" height="66" filterUnits="userSpaceOnUse" color-interpolation-filters="sRGB">
<feFlood flood-opacity="0" result="BackgroundImageFix"/>
<feColorMatrix in="SourceAlpha" type="matrix" values="0 0 0 0 0 0 0 0 0 0 0 0 0 0 0 0 0 0 127 0" result="hardAlpha"/>
<feOffset dy="2"/>
<feGaussianBlur stdDeviation="1.5"/>
<feComposite in2="hardAlpha" operator="out"/>
<feColorMatrix type="matrix" values="0 0 0 0 0 0 0 0 0 0 0 0 0 0 0 0 0 0 0.43 0"/>
<feBlend mode="normal" in2="BackgroundImageFix" result="effect1_dropShadow_79_9"/>
<feBlend mode="normal" in="SourceGraphic" in2="effect1_dropShadow_79_9" result="shape"/>
</filter>
</defs>
</svg>
